<svg width="20" height="22" viewBox="0 0 20 22" fill="none" xmlns="http://www.w3.org/2000/svg">
<path d="M19.0909 9.68H17.1591V3.52C17.1591 1.57575 15.5313 0 13.5227 0H6.47727C4.46875 0 2.84091 1.57575 2.84091 3.52V9.68H0.909091C0.40625 9.68 0 10.0732 0 10.56V21.12C0 21.6067 0.40625 22 0.909091 22H19.0909C19.5938 22 20 21.6067 20 21.12V10.56C20 10.0732 19.5938 9.68 19.0909 9.68ZM10.7955 16.1975V17.655C10.7955 17.776 10.6932 17.875 10.5682 17.875H9.43182C9.30682 17.875 9.20455 17.776 9.20455 17.655V16.1975C8.97004 16.0345 8.795 15.8037 8.70463 15.5383C8.61426 15.2729 8.61322 14.9866 8.70165 14.7206C8.79009 14.4546 8.96344 14.2226 9.19675 14.058C9.43007 13.8934 9.71131 13.8047 10 13.8047C10.2887 13.8047 10.5699 13.8934 10.8032 14.058C11.0366 14.2226 11.2099 14.4546 11.2983 14.7206C11.3868 14.9866 11.3857 15.2729 11.2954 15.5383C11.205 15.8037 11.03 16.0345 10.7955 16.1975V16.1975ZM15.1136 9.68H4.88636V3.52C4.88636 2.67025 5.59943 1.98 6.47727 1.98H13.5227C14.4006 1.98 15.1136 2.67025 15.1136 3.52V9.68Z" fill="white"/>
</svg>
